<?xml version="1.0" encoding="UTF-8" standalone="no"?>
<!-- Created with Inkscape (http://www.inkscape.org/) -->

<svg
   xmlns:dc="http://purl.org/dc/elements/1.1/"
   xmlns:cc="http://creativecommons.org/ns#"
   xmlns:rdf="http://www.w3.org/1999/02/22-rdf-syntax-ns#"
   xmlns:svg="http://www.w3.org/2000/svg"
   xmlns="http://www.w3.org/2000/svg"
   xmlns:xlink="http://www.w3.org/1999/xlink"
   xmlns:sodipodi="http://sodipodi.sourceforge.net/DTD/sodipodi-0.dtd"
   xmlns:inkscape="http://www.inkscape.org/namespaces/inkscape"
   width="13.520844mm"
   height="13.520844mm"
   viewBox="0 0 47.908501 47.908501"
   id="svg2"
   version="1.1"
   inkscape:version="0.91 r13725"
   sodipodi:docname="Button - Contact Us.svg"
   inkscape:export-filename="/Users/jgillanders/Development/Games/Colibrium/Pictures/Button - Contact Us.png"
   inkscape:export-xdpi="961.83002"
   inkscape:export-ydpi="961.83002">
  <defs
     id="defs4">
    <marker
       inkscape:isstock="true"
       inkscape:stockid="DistanceStart"
       orient="auto"
       refY="0"
       refX="0"
       id="DistanceStart"
       style="overflow:visible">
      <g
         id="g2300">
        <path
           id="path2306"
           d="M 0,0 2,0"
           style="fill:none;stroke:#ffffff;stroke-width:1.14999998;stroke-linecap:square"
           inkscape:connector-curvature="0" />
        <path
           id="path2302"
           d="M 0,0 13,4 9,0 13,-4 0,0 Z"
           style="fill:#000000;fill-rule:evenodd;stroke:none"
           inkscape:connector-curvature="0" />
        <path
           id="path2304"
           d="M 0,-4 0,40"
           style="fill:none;stroke:#000000;stroke-width:1;stroke-linecap:square"
           inkscape:connector-curvature="0" />
      </g>
    </marker>
    <linearGradient
       x1="14.66"
       y1="7.0243001"
       x2="24.031"
       gradientUnits="userSpaceOnUse"
       y2="34.826"
       id="G3">
      <stop
         offset="0"
         stop-color="#fcf9fb"
         id="s3" />
      <stop
         offset="1"
         stop-opacity="0"
         stop-color="#fcf9fb"
         id="s4" />
    </linearGradient>
    <radialGradient
       fy="32.797306"
       fx="28.935429"
       r="22"
       gradientTransform="matrix(1,-0.2,0.2,1,-3.8,6.8)"
       cx="28.935429"
       cy="32.797306"
       gradientUnits="userSpaceOnUse"
       id="R0">
      <stop
         offset="0"
         stop-color="#e6cf00"
         id="s1" />
      <stop
         offset="1"
         stop-color="#fde94a"
         id="s2" />
    </radialGradient>
    <radialGradient
       r="9.6875"
       gradientTransform="matrix(2.4,0,0,0.67,-17.1,22.4)"
       cx="17.312"
       cy="25.531"
       gradientUnits="userSpaceOnUse"
       id="R1">
      <stop
         offset="0"
         stop-opacity=".63"
         id="s5" />
      <stop
         offset="1"
         stop-opacity="0"
         id="s6" />
    </radialGradient>
    <linearGradient
       gradientTransform="matrix(0.31170768,-0.14537193,0.14537193,0.31170768,-216.07743,565.35148)"
       y2="34.826"
       x2="24.031"
       y1="7.0243001"
       x1="14.66"
       gradientUnits="userSpaceOnUse"
       id="linearGradient2995"
       xlink:href="#G3"
       inkscape:collect="always" />
    <radialGradient
       r="22"
       fy="32.797306"
       fx="28.935429"
       cy="32.797306"
       cx="28.935429"
       gradientTransform="matrix(1,-0.2,0.2,1,78.2,6.8)"
       gradientUnits="userSpaceOnUse"
       id="radialGradient3011"
       xlink:href="#R0"
       inkscape:collect="always" />
    <radialGradient
       r="22"
       fy="32.797306"
       fx="28.935429"
       cy="32.797306"
       cx="28.935429"
       gradientTransform="matrix(1,-0.2,0.2,1,78.2,6.8)"
       gradientUnits="userSpaceOnUse"
       id="radialGradient3018-9"
       xlink:href="#R0-4"
       inkscape:collect="always" />
    <radialGradient
       fy="32.797306"
       fx="28.935429"
       r="22"
       gradientTransform="matrix(1,-0.2,0.2,1,-3.8,6.8)"
       cx="28.935429"
       cy="32.797306"
       gradientUnits="userSpaceOnUse"
       id="R0-4">
      <stop
         offset="0"
         stop-color="#e6cf00"
         id="s1-8" />
      <stop
         offset="1"
         stop-color="#fde94a"
         id="s2-8" />
    </radialGradient>
    <radialGradient
       r="22"
       fy="32.797306"
       fx="28.935429"
       cy="32.797306"
       cx="28.935429"
       gradientTransform="matrix(1,-0.2,0.2,1,78.2,6.8)"
       gradientUnits="userSpaceOnUse"
       id="radialGradient3028-2"
       xlink:href="#R0-45"
       inkscape:collect="always" />
    <radialGradient
       fy="32.797306"
       fx="28.935429"
       r="22"
       gradientTransform="matrix(1,-0.2,0.2,1,-3.8,6.8)"
       cx="28.935429"
       cy="32.797306"
       gradientUnits="userSpaceOnUse"
       id="R0-45">
      <stop
         offset="0"
         stop-color="#e6cf00"
         id="s1-5" />
      <stop
         offset="1"
         stop-color="#fde94a"
         id="s2-1" />
    </radialGradient>
    <radialGradient
       r="22"
       fy="32.797306"
       fx="28.935429"
       cy="32.797306"
       cx="28.935429"
       gradientTransform="matrix(1,-0.2,0.2,1,78.2,6.8)"
       gradientUnits="userSpaceOnUse"
       id="radialGradient3986"
       xlink:href="#R0-45"
       inkscape:collect="always" />
    <radialGradient
       r="22"
       fy="32.797306"
       fx="28.935429"
       cy="32.797306"
       cx="28.935429"
       gradientTransform="matrix(1,-0.2,0.2,1,78.2,6.8)"
       gradientUnits="userSpaceOnUse"
       id="radialGradient3986-5"
       xlink:href="#R0-45-7"
       inkscape:collect="always" />
    <radialGradient
       fy="32.797306"
       fx="28.935429"
       r="22"
       gradientTransform="matrix(1,-0.2,0.2,1,-3.8,6.8)"
       cx="28.935429"
       cy="32.797306"
       gradientUnits="userSpaceOnUse"
       id="R0-45-7">
      <stop
         offset="0"
         stop-color="#e6cf00"
         id="s1-5-6" />
      <stop
         offset="1"
         stop-color="#fde94a"
         id="s2-1-1" />
    </radialGradient>
    <radialGradient
       inkscape:collect="always"
       xlink:href="#R0-45-7"
       id="radialGradient4007"
       gradientUnits="userSpaceOnUse"
       gradientTransform="matrix(1,-0.2,0.2,1,78.2,6.8)"
       cx="28.935429"
       cy="32.797306"
       fx="28.935429"
       fy="32.797306"
       r="22" />
    <radialGradient
       r="22"
       fy="32.797306"
       fx="28.935429"
       cy="32.797306"
       cx="28.935429"
       gradientTransform="matrix(1,-0.2,0.2,1,78.2,6.8)"
       gradientUnits="userSpaceOnUse"
       id="radialGradient3986-5-2"
       xlink:href="#R0-45-7-7"
       inkscape:collect="always" />
    <radialGradient
       fy="32.797306"
       fx="28.935429"
       r="22"
       gradientTransform="matrix(1,-0.2,0.2,1,-3.8,6.8)"
       cx="28.935429"
       cy="32.797306"
       gradientUnits="userSpaceOnUse"
       id="R0-45-7-7">
      <stop
         offset="0"
         stop-color="#e6cf00"
         id="s1-5-6-9" />
      <stop
         offset="1"
         stop-color="#fde94a"
         id="s2-1-1-5" />
    </radialGradient>
    <radialGradient
       inkscape:collect="always"
       xlink:href="#R0-45-7-7"
       id="radialGradient4041"
       gradientUnits="userSpaceOnUse"
       gradientTransform="matrix(1,-0.2,0.2,1,78.2,6.8)"
       cx="28.935429"
       cy="32.797306"
       fx="28.935429"
       fy="32.797306"
       r="22" />
    <radialGradient
       r="22"
       fy="32.797306"
       fx="28.935429"
       cy="32.797306"
       cx="28.935429"
       gradientTransform="matrix(1,-0.2,0.2,1,78.2,6.8)"
       gradientUnits="userSpaceOnUse"
       id="radialGradient4065"
       xlink:href="#R0-45"
       inkscape:collect="always" />
    <radialGradient
       r="22"
       fy="32.797306"
       fx="28.935429"
       cy="32.797306"
       cx="28.935429"
       gradientTransform="matrix(1,-0.2,0.2,1,78.2,6.8)"
       gradientUnits="userSpaceOnUse"
       id="radialGradient4065-4"
       xlink:href="#R0-45-3"
       inkscape:collect="always" />
    <radialGradient
       fy="32.797306"
       fx="28.935429"
       r="22"
       gradientTransform="matrix(1,-0.2,0.2,1,-3.8,6.8)"
       cx="28.935429"
       cy="32.797306"
       gradientUnits="userSpaceOnUse"
       id="R0-45-3">
      <stop
         offset="0"
         stop-color="#e6cf00"
         id="s1-5-1" />
      <stop
         offset="1"
         stop-color="#fde94a"
         id="s2-1-2" />
    </radialGradient>
    <radialGradient
       r="22"
       fy="32.797306"
       fx="28.935429"
       cy="32.797306"
       cx="28.935429"
       gradientTransform="matrix(1.0439725,-0.20879451,0.20879451,1.0439725,-147.8058,553.72738)"
       gradientUnits="userSpaceOnUse"
       id="radialGradient4113"
       xlink:href="#R0-45-7-7"
       inkscape:collect="always" />
    <radialGradient
       r="22"
       fy="32.797306"
       fx="28.935429"
       cy="32.797306"
       cx="28.935429"
       gradientTransform="matrix(1,-0.2,0.2,1,78.2,6.8)"
       gradientUnits="userSpaceOnUse"
       id="radialGradient4117"
       xlink:href="#R0-45"
       inkscape:collect="always" />
    <radialGradient
       r="22"
       fy="32.797306"
       fx="28.935429"
       cy="32.797306"
       cx="28.935429"
       gradientTransform="matrix(0.61925922,-1.4303233,1.4303233,0.61925922,-39.346374,44.502008)"
       gradientUnits="userSpaceOnUse"
       id="radialGradient4120"
       xlink:href="#R0-45"
       inkscape:collect="always" />
  </defs>
  <sodipodi:namedview
     id="base"
     pagecolor="#ffffff"
     bordercolor="#666666"
     borderopacity="1.0"
     inkscape:pageopacity="0.0"
     inkscape:pageshadow="2"
     inkscape:zoom="5.6"
     inkscape:cx="-5.9179353"
     inkscape:cy="30.152565"
     inkscape:document-units="px"
     inkscape:current-layer="layer1"
     showgrid="false"
     fit-margin-top="0"
     fit-margin-left="0"
     fit-margin-right="0"
     fit-margin-bottom="0"
     inkscape:window-width="1440"
     inkscape:window-height="815"
     inkscape:window-x="0"
     inkscape:window-y="1"
     inkscape:window-maximized="1" />
  <metadata
     id="metadata7">
    <rdf:RDF>
      <cc:Work
         rdf:about="">
        <dc:format>image/svg+xml</dc:format>
        <dc:type
           rdf:resource="http://purl.org/dc/dcmitype/StillImage" />
        <dc:title />
      </cc:Work>
    </rdf:RDF>
  </metadata>
  <g
     inkscape:label="Layer 1"
     inkscape:groupmode="layer"
     id="layer1"
     transform="translate(229.66854,-548.40793)">
    <path
       id="hl"
       d="m -206.82877,565.402 2.03199,0.91795 c 1.54237,0.71307 0.75483,0.33719 2.36782,1.12659 -4.12683,1.94063 -0.28812,2.61772 -4.43562,5.1369 l 0.0102,-0.70185 c 0.0502,-4.01163 -0.32955,1.92558 0.0256,-6.47959 z"
       style="opacity:0.8;fill:url(#linearGradient2995)"
       inkscape:connector-curvature="0"
       sodipodi:nodetypes="cccccc" />
    <circle
       r="22.95425"
       cy="572.36218"
       cx="-205.71429"
       id="path3932"
       style="color:#000000;display:inline;overflow:visible;visibility:visible;fill:url(#radialGradient4113);fill-opacity:1;fill-rule:nonzero;stroke:#000000;stroke-width:2;stroke-linecap:butt;stroke-linejoin:miter;stroke-miterlimit:4;stroke-dasharray:none;stroke-dashoffset:0;stroke-opacity:1;marker:none;enable-background:accumulate" />
    <circle
       r="20.743464"
       cy="572.36218"
       cx="-205.71429"
       style="color:#000000;display:inline;overflow:visible;visibility:visible;opacity:0.68999999;fill:none;stroke:#ffffff;stroke-width:2.53080082;stroke-linecap:butt;stroke-linejoin:miter;stroke-miterlimit:4;stroke-dasharray:none;stroke-dashoffset:0;stroke-opacity:1;marker:none;enable-background:accumulate"
       id="path4067" />
    <flowRoot
       style="font-style:normal;font-variant:normal;font-weight:normal;font-stretch:normal;font-size:22.5px;line-height:125%;font-family:Arial;-inkscape-font-specification:Arial;text-align:center;letter-spacing:2.72000003px;word-spacing:0px;text-anchor:middle;fill:#000000;fill-opacity:1;stroke:none;stroke-width:1px;stroke-linecap:butt;stroke-linejoin:miter;stroke-opacity:1"
       id="flowRoot3379"
       xml:space="preserve"
       transform="translate(-229.71429,548.3622)"><flowRegion
         id="flowRegion3381"><rect
           style="font-size:22.5px"
           y="12.076912"
           x="10.03369"
           height="29.110088"
           width="28.986216"
           id="rect3383" /></flowRegion><flowPara
         id="flowPara3385" /></flowRoot>    <g
       id="g4317"
       transform="matrix(0.04936231,0,0,0.04936231,-216.23013,558.39756)">
      <path
         sodipodi:nodetypes="cccccccccscccccccccsssccccccccccsccccccssscsssccsssccsssccssscsscccsscsssccsssccsssccssscssssssccccssssssssssssss"
         d="m 513.74,204.829 -29.482,29.486 -82.147,-82.139 29.494,-29.489 c 9.292,-9.292 23.253,-10.441 31.138,-2.565 l 53.563,53.572 c 7.873,7.873 6.726,21.843 -2.566,31.135 z m -125.319,-38.97 82.147,82.147 -195.883,195.88 c -0.898,0.898 -3.393,3.393 -6.892,4.285 -0.405,0.195 -0.819,0.361 -1.229,0.491 l -102.23,32.58 c -2.861,0.904 -5.736,0.319 -7.601,-1.549 -1.871,-1.868 -2.45,-4.74 -1.555,-7.602 l 32.58,-102.221 c 0.139,-0.419 0.305,-0.827 0.491,-1.224 0.896,-3.505 3.384,-5.993 4.292,-6.897 l 36.812,-36.812 -124.333,0 c -5.012,0 -9.079,-4.066 -9.079,-9.079 0,-5.023 4.066,-9.078 9.079,-9.078 l 142.491,0 z m -139.004,271.715 -50.569,-50.561 -13.565,42.581 21.554,21.557 z M 385.265,198.508 c -2.908,-2.911 -7.625,-2.911 -10.527,0 L 222.03,351.206 c -2.905,2.908 -2.905,7.625 0,10.533 2.905,2.908 7.625,2.908 10.53,0 L 385.265,209.04 c 2.907,-2.911 2.907,-7.627 0,-10.532 z m -9.228,290.709 c 0,5.455 -4.438,9.9 -9.895,9.9 -123.82459,-2.08987 -200.51115,-0.001 -319.257,-0.001 -5.458,0 -9.909,-4.434 -9.909,-9.9 l 0,-415.792 c 0,-5.458 4.445,-9.9 9.909,-9.9 l 37.12,0 0,15.675 c 0,5.464 4.43,9.897 9.903,9.897 5.471,0 9.901,-4.433 9.901,-9.897 l 0,-15.676 56.92,0 0,15.675 c 0,5.464 4.43,9.897 9.901,9.897 5.473,0 9.903,-4.433 9.903,-9.897 l 0,-15.675 49.497,0 0,15.675 c 0,5.464 4.43,9.897 9.904,9.897 5.47,0 9.9,-4.433 9.9,-9.897 l 0,-15.675 54.453,0 0,15.675 c 0,5.464 4.427,9.897 9.895,9.897 5.473,0 9.906,-4.433 9.906,-9.897 l 0,-15.675 42.072,0 c 5.45,0 9.896,4.442 9.896,9.9 l 0,68.571 10.379,-10.374 19.322,-19.325 0,-38.871 c 0,-21.831 -17.762,-39.596 -39.597,-39.596 l -42.072,0 0,-23.924 C 324.088,4.437 319.654,0 314.182,0 c -5.462,0 -9.895,4.431 -9.895,9.904 l 0,23.924 -54.465,0 0,-23.924 c 0,-5.467 -4.43,-9.904 -9.901,-9.904 -5.473,0 -9.903,4.431 -9.903,9.904 l 0,23.924 -49.497,0 0,-23.924 c 0,-5.467 -4.43,-9.904 -9.904,-9.904 -5.47,0 -9.9,4.431 -9.9,9.904 l 0,23.924 -56.92,0 0,-23.924 C 103.797,4.437 99.366,0 93.896,0 88.423,0 83.993,4.431 83.993,9.904 l 0,23.924 -37.12,0 c -21.832,0 -39.602,17.765 -39.602,39.596 l 0,415.787 c 0,21.834 17.771,39.596 39.602,39.596 l 319.264,0 c 21.835,0 39.597,-17.762 39.597,-39.596 l 0,-144.152 -29.702,29.708 0,114.45 z m -77.33,-336.781 -193.687,0 c -5.012,0 -9.079,4.061 -9.079,9.079 0,5.019 4.066,9.079 9.079,9.079 l 193.687,0 c 5.013,0 9.079,-4.061 9.079,-9.079 0,-5.018 -4.066,-9.079 -9.079,-9.079 z m 0,73.199 -193.687,0 c -5.012,0 -9.079,4.063 -9.079,9.079 0,5.019 4.066,9.079 9.079,9.079 l 193.687,0 c 5.013,0 9.079,-4.061 9.079,-9.079 0,-5.016 -4.066,-9.079 -9.079,-9.079 z"
         id="path5"
         inkscape:connector-curvature="0" />
      <g
         id="g7" />
      <g
         id="g9" />
      <g
         id="g11" />
      <g
         id="g13" />
      <g
         id="g15" />
      <g
         id="g17" />
      <g
         id="g19" />
      <g
         id="g21" />
      <g
         id="g23" />
      <g
         id="g25" />
      <g
         id="g27" />
      <g
         id="g29" />
      <g
         id="g31" />
      <g
         id="g33" />
      <g
         id="g35" />
    </g>
  </g>
</svg>
